<?xml version="1.0" encoding="UTF-8" standalone="no"?>
<!DOCTYPE svg PUBLIC "-//W3C//DTD SVG 1.1//EN" "http://www.w3.org/Graphics/SVG/1.1/DTD/svg11.dtd">
<svg width="100%" height="100%" viewBox="0 0 141 141" version="1.1" xmlns="http://www.w3.org/2000/svg" xmlns:xlink="http://www.w3.org/1999/xlink" xml:space="preserve" xmlns:serif="http://www.serif.com/" style="fill-rule:evenodd;clip-rule:evenodd;stroke-linecap:round;stroke-linejoin:round;stroke-miterlimit:1.5;">
    <g transform="matrix(1,0,0,1,-47.9555,-53.8306)">
        <g transform="matrix(1,0,0,1,-2176.98,-2358.76)">
            <g transform="matrix(-0.709389,0.704817,-0.704817,-0.709389,2295.03,2482.69)">
                <circle cx="0" cy="0" r="65.948" style="fill:white;stroke:black;stroke-width:8.33px;"/>
            </g>
            <g transform="matrix(1.33684,0,0,-1.33684,2250.82,2560.19)">
                <path d="M17.672,28.64C17.77,28.152 18.438,28.152 18.535,28.64C20.281,37.347 27.137,44.21 35.844,45.948C36.328,46.046 36.328,46.714 35.844,46.808C27.137,48.554 20.273,55.409 18.535,64.116C18.438,64.605 17.77,64.605 17.672,64.116C15.926,55.409 9.07,48.546 0.363,46.808C-0.121,46.714 -0.121,46.046 0.363,45.948C9.07,44.202 15.938,37.347 17.672,28.64Z" style="fill-rule:nonzero;"/>
            </g>
            <g transform="matrix(1.33684,0,0,-1.33684,2250.82,2465.98)">
                <path d="M22.957,10.875C28.312,9.801 32.531,5.582 33.605,0.226C33.664,-0.074 34.078,-0.074 34.137,0.226C35.211,5.582 39.434,9.804 44.789,10.875C45.086,10.933 45.086,11.347 44.789,11.406C39.434,12.48 35.211,16.703 34.137,22.058C34.078,22.355 33.668,22.355 33.605,22.058C32.531,16.703 28.312,12.48 22.957,11.406C22.656,11.347 22.656,10.937 22.957,10.875Z" style="fill-rule:nonzero;"/>
            </g>
            <g transform="matrix(1.33684,0,0,-1.33684,2250.82,2523.9)">
                <path d="M67.359,33.148C60.461,34.531 55.023,39.968 53.645,46.867C53.566,47.25 53.039,47.25 52.961,46.867C51.582,39.968 46.145,34.531 39.246,33.148C38.859,33.074 38.859,32.543 39.246,32.468C46.145,31.086 51.582,25.648 52.961,18.75C53.039,18.359 53.566,18.359 53.645,18.75C55.023,25.648 60.461,31.086 67.359,32.468C67.746,32.543 67.746,33.074 67.359,33.148Z" style="fill-rule:nonzero;"/>
            </g>
        </g>
    </g>
</svg>
